# xmcd CD database file
#
# Track frame offsets:
#	150
#	14870
#	31220
#	50339
#	61436
#	72893
#	86695
#	99941
#	121443
#	131030
#	147002
#	159492
#	175534
#	187464
#	204232
#	214888
#	226594
#	237550
#
# Disc length: 3351 seconds
#
# Revision: 0
# Processed by: cddbd v1.5.2PL0 Copyright (c) Steve Scherf et al.
# Submitted via: CDex 1.51
#
DISCID=000d1512
DTITLE=Farmer Dan - Granny's Off Her Rocker
DYEAR=2010
DGENRE=Country
TTITLE0=Me Little Two Acre Farm
TTITLE1=Home Away From Home
TTITLE2=Seven Old Ladies Stuck In The Lavatory
TTITLE3=Baggie Britches Brown
TTITLE4=Here I Am Im Drunk Again
TTITLE5=Galway Girl
TTITLE6=Gypsy, Joe and Me
TTITLE7=My Cottage By The Sea
TTITLE8=Granny's Off Her Rocker
TTITLE9=Jasons' Farm
TTITLE10=The Mighty 143
TTITLE11=Back When The Old Homeplace Was New
TTITLE12=Poor Boy Ain't Got No Money
TTITLE13=The Lights of Rosslare Harbour
TTITLE14=I Got My Education Out Behind The Barn!
TTITLE15=The Ramblin House
TTITLE16=The Farmer Is The Man
TTITLE17=The Barnyard Boogie
EXTD=YEAR: 2010
EXTT0=
EXTT1=
EXTT2=
EXTT3=
EXTT4=
EXTT5=
EXTT6=
EXTT7=
EXTT8=
EXTT9=
EXTT10=
EXTT11=
EXTT12=
EXTT13=
EXTT14=
EXTT15=
EXTT16=
EXTT17=
PLAYORDER=
